<?xml version="1.0" encoding="iso-8859-1"?>
<!-- Uploaded to: SVG Repo, www.svgrepo.com, Generator: SVG Repo Mixer Tools -->
<!DOCTYPE svg PUBLIC "-//W3C//DTD SVG 1.1//EN" "http://www.w3.org/Graphics/SVG/1.1/DTD/svg11.dtd">
<svg fill="#000000" version="1.1" id="Capa_1" xmlns="http://www.w3.org/2000/svg" xmlns:xlink="http://www.w3.org/1999/xlink" 
	 width="800px" height="800px" viewBox="0 0 367.806 367.806"
	 xml:space="preserve">
<g>
	<g>
		<g>
			<path d="M233.708,43.522c0.372,1.243,1.669,1.942,2.912,1.579c1.225-0.36,1.934-1.663,1.567-2.9L226.189,1.66
				c-0.36-1.216-1.657-1.925-2.882-1.567c-1.237,0.369-1.958,1.667-1.592,2.892L233.708,43.522z"/>
		</g>
		<g>
			<path d="M356.518,70.922l-40.538,12.003c-1.225,0.363-1.928,1.648-1.556,2.889c0.36,1.237,1.658,1.945,2.877,1.582l40.55-11.991
				c1.231-0.363,1.934-1.673,1.573-2.91C359.052,71.256,357.749,70.553,356.518,70.922z"/>
		</g>
		<g>
			<path d="M284.305,50.47c1.032,0.556,2.546,0.15,3.146-0.945l20.164-37.134c0.312-0.559,0.384-1.198,0.197-1.808
				c-0.113-0.333-0.39-0.952-1.104-1.333c-0.757-0.42-1.447-0.297-1.789-0.204c-0.343,0.105-0.973,0.381-1.363,1.108l-20.2,37.169
				c-0.402,0.745-0.301,1.415-0.192,1.748C283.344,49.671,283.746,50.164,284.305,50.47z"/>
		</g>
		<g>
			<path d="M313.674,133.345c-0.751-0.405-1.436-0.306-1.783-0.207c-0.337,0.102-0.973,0.381-1.369,1.111
				c-0.408,0.757-0.301,1.447-0.198,1.783c0.114,0.352,0.39,0.997,1.122,1.408l37.128,20.152c1.472,0.816,2.349,0.582,3.177-0.937
				c0.612-1.144,0.204-2.519-0.913-3.128L313.674,133.345z"/>
		</g>
		<g>
			<path d="M190.737,71.82c1.12,0.615,2.576,0.159,3.183-0.97c0.391-0.685,0.265-1.372,0.168-1.729
				c-0.102-0.339-0.384-0.985-1.104-1.372l-37.164-20.191c-0.549-0.309-1.188-0.369-1.771-0.204
				c-0.598,0.18-1.096,0.585-1.396,1.138c-0.604,1.126-0.184,2.546,0.939,3.162L190.737,71.82z"/>
		</g>
		<g>
			<path d="M254.953,58.027c25.04,0,45.396,20.359,45.396,45.393c0,11.091-4.065,21.212-10.706,29.096
				c-8.425-1.841-17.396-2.159-26.631-0.436c-11.361-18.939-31.291-30.937-53.191-32.438
				C211.742,76.396,231.191,58.027,254.953,58.027z M271.766,262.758H69.303c-33.645,0-61.015-27.364-61.015-61.003
				c0-31.342,23.476-57.415,54.608-60.66l2.792-0.652v-2.834c0-33.636,27.37-61,61.009-61c23.059,0,43.892,12.814,54.376,33.441
				l1.174,2.312l2.498-0.721c5.599-1.63,11.319-2.447,16.988-2.447c22.164,0,42.616,12.058,53.389,31.496l1.135,2.047l2.288-0.504
				c39.103-8.635,74.231,21.563,74.231,59.522C332.775,235.394,305.417,262.758,271.766,262.758z"/>
		</g>
		<g>
			<path d="M146.122,285.342l-2.354,3.495c-2.564,3.812-25.004,37.602-25.004,51.61c0,15.085,12.28,27.358,27.364,27.358
				s27.352-12.273,27.352-27.358c0-14.003-22.446-47.792-24.998-51.61L146.122,285.342z M146.122,362.112
				c-11.959,0-21.681-9.721-21.681-21.665c0-9.337,13.982-32.924,21.681-44.85c7.692,11.92,21.674,35.513,21.674,44.85
				C167.796,352.392,158.068,362.112,146.122,362.112z"/>
		</g>
		<g>
			<path d="M215.543,283l-2.359,3.495c-1.886,2.822-11.35,17.203-11.35,23.742c0,7.548,6.149,13.697,13.709,13.697
				c7.561,0,13.697-6.149,13.697-13.697c0-6.539-9.439-20.92-11.343-23.742L215.543,283z M215.543,318.254
				c-4.425,0-8.016-3.591-8.016-8.011c0-2.93,4.143-10.694,8.016-16.921c3.873,6.227,8.028,13.985,8.028,16.921
				C223.56,314.663,219.957,318.254,215.543,318.254z"/>
		</g>
	</g>
</g>
</svg>